version 1
nodes
0 "Implicit" -1
1 "rope_bone" -1
end
skeleton
time 0
0  0.000000 0.000000 0.000000  0.000000 0.000000 0.000000
1  0.000000 0.000000 0.000000  1.570796 -0.000000 0.000000
end
triangles
no_material
0  -0.689459 0.578506 -0.000422  -0.665970 0.558812 -0.494179  0.885965 -49.183601  1  1 1.000000
0  -0.900019 -0.000002 9.997935  -0.990551 0.017685 0.136002  0.997070 -46.674198  1  1 1.000000
0  -0.689459 0.578507 9.997935  -0.758965 0.636850 0.135629  0.885965 -46.674198  1  1 1.000000
no_material
0  -0.000019 -0.000002 10.422442  -0.724398 -0.648866 0.232853  0.330390 -46.446098  1  1 1.000000
0  0.449980 -0.779425 9.997935  0.510588 -0.849002 0.136002  0.330390 -46.674198  1  1 1.000000
0  0.845703 -0.307821 9.997935  0.931045 -0.338764 0.135629  0.441505 -46.674198  1  1 1.000000
no_material
0  -0.000019 -0.000002 10.422442  -0.724398 -0.648866 0.232853  0.108185 -46.446098  1  1 1.000000
0  -0.689459 -0.578511 9.997935  -0.747441 -0.650258 0.136002  0.108185 -46.674198  1  1 1.000000
0  -0.156303 -0.886329 9.997935  -0.171942 -0.975726 0.135629  0.219275 -46.674198  1  1 1.000000
no_material
0  0.449980 -0.779426 -0.000422  0.434682 -0.752887 -0.494179  0.330390 -49.183601  1  1 1.000000
0  0.845703 -0.307821 9.997935  0.931045 -0.338764 0.135629  0.441505 -46.674198  1  1 1.000000
0  0.449980 -0.779425 9.997935  0.510588 -0.849002 0.136002  0.330390 -46.674198  1  1 1.000000
no_material
0  0.845703 -0.307821 -0.000422  0.816931 -0.297338 -0.494179  0.441505 -49.183601  1  1 1.000000
0  0.845705 0.307816 9.997935  0.936862 0.322168 0.136002  0.552620 -46.674198  1  1 1.000000
0  0.845703 -0.307821 9.997935  0.931045 -0.338764 0.135629  0.441505 -46.674198  1  1 1.000000
no_material
0  -0.000019 -0.000002 10.422442  -0.724398 -0.648866 0.232853  0.441505 -46.446098  1  1 1.000000
0  0.845703 -0.307821 9.997935  0.931045 -0.338764 0.135629  0.441505 -46.674198  1  1 1.000000
0  0.845705 0.307816 9.997935  0.936862 0.322168 0.136002  0.552620 -46.674198  1  1 1.000000
no_material
0  -0.900019 -0.000002 -0.000422  -0.869360 -0.000002 -0.494179  -0.002930 -49.183601  1  1 1.000000
0  -0.689459 -0.578511 9.997935  -0.747441 -0.650258 0.136002  0.108185 -46.674198  1  1 1.000000
0  -0.900019 -0.000002 9.997935  -0.990551 0.017685 0.136002  -0.002930 -46.674198  1  1 1.000000
no_material
0  -0.000019 -0.000002 10.422442  -0.724398 -0.648866 0.232853  0.552620 -46.446098  1  1 1.000000
0  0.845705 0.307816 9.997935  0.936862 0.322168 0.136002  0.552620 -46.674198  1  1 1.000000
0  0.449982 0.779421 9.997935  0.495351 0.858040 0.135629  0.663735 -46.674198  1  1 1.000000
no_material
0  -0.156303 0.886324 -0.000422  -0.150965 0.856152 -0.494179  0.774850 -49.183601  1  1 1.000000
0  -0.689459 0.578507 9.997935  -0.758965 0.636850 0.135629  0.885965 -46.674198  1  1 1.000000
0  -0.156303 0.886325 9.997935  -0.172042 0.975708 0.135628  0.774850 -46.674198  1  1 1.000000
no_material
0  0.449982 0.779420 -0.000422  0.434678 0.752889 -0.494179  0.663735 -49.183601  1  1 1.000000
0  -0.156303 0.886325 9.997935  -0.172042 0.975708 0.135628  0.774850 -46.674198  1  1 1.000000
0  0.449982 0.779421 9.997935  0.495351 0.858040 0.135629  0.663735 -46.674198  1  1 1.000000
no_material
0  -0.000019 -0.000002 10.422442  -0.724398 -0.648866 0.232853  0.885965 -46.446098  1  1 1.000000
0  -0.689459 0.578507 9.997935  -0.758965 0.636850 0.135629  0.885965 -46.674198  1  1 1.000000
0  -0.900019 -0.000002 9.997935  -0.990551 0.017685 0.136002  0.997070 -46.674198  1  1 1.000000
no_material
0  -0.000019 -0.000002 10.422442  -0.724398 -0.648866 0.232853  -0.002930 -46.446098  1  1 1.000000
0  -0.900019 -0.000002 9.997935  -0.990551 0.017685 0.136002  -0.002930 -46.674198  1  1 1.000000
0  -0.689459 -0.578511 9.997935  -0.747441 -0.650258 0.136002  0.108185 -46.674198  1  1 1.000000
no_material
0  -0.156303 -0.886330 -0.000422  -0.150962 -0.856153 -0.494179  0.219275 -49.183601  1  1 1.000000
0  0.449980 -0.779425 9.997935  0.510588 -0.849002 0.136002  0.330390 -46.674198  1  1 1.000000
0  -0.156303 -0.886329 9.997935  -0.171942 -0.975726 0.135629  0.219275 -46.674198  1  1 1.000000
no_material
0  -0.000019 -0.000002 10.422442  -0.724398 -0.648866 0.232853  0.219275 -46.446098  1  1 1.000000
0  -0.156303 -0.886329 9.997935  -0.171942 -0.975726 0.135629  0.219275 -46.674198  1  1 1.000000
0  0.449980 -0.779425 9.997935  0.510588 -0.849002 0.136002  0.330390 -46.674198  1  1 1.000000
no_material
0  -0.689459 -0.578511 -0.000422  -0.665968 -0.558815 -0.494179  0.108185 -49.183601  1  1 1.000000
0  -0.156303 -0.886329 9.997935  -0.171942 -0.975726 0.135629  0.219275 -46.674198  1  1 1.000000
0  -0.689459 -0.578511 9.997935  -0.747441 -0.650258 0.136002  0.108185 -46.674198  1  1 1.000000
no_material
0  0.845705 0.307816 -0.000422  0.816931 0.297339 -0.494179  0.552620 -49.183601  1  1 1.000000
0  0.449982 0.779421 9.997935  0.495351 0.858040 0.135629  0.663735 -46.674198  1  1 1.000000
0  0.845705 0.307816 9.997935  0.936862 0.322168 0.136002  0.552620 -46.674198  1  1 1.000000
no_material
0  -0.000019 -0.000002 10.422442  -0.724398 -0.648866 0.232853  0.663735 -46.446098  1  1 1.000000
0  0.449982 0.779421 9.997935  0.495351 0.858040 0.135629  0.663735 -46.674198  1  1 1.000000
0  -0.156303 0.886325 9.997935  -0.172042 0.975708 0.135628  0.774850 -46.674198  1  1 1.000000
no_material
0  -0.000019 -0.000002 10.422442  -0.724398 -0.648866 0.232853  0.774850 -46.446098  1  1 1.000000
0  -0.156303 0.886325 9.997935  -0.172042 0.975708 0.135628  0.774850 -46.674198  1  1 1.000000
0  -0.689459 0.578507 9.997935  -0.758965 0.636850 0.135629  0.885965 -46.674198  1  1 1.000000
no_material
0  0.845705 0.307816 -0.000422  0.816931 0.297339 -0.494179  0.003906 0.336298  1  1 1.000000
0  0.845703 -0.307821 -0.000422  0.816931 -0.297338 -0.494179  0.003906 0.164935  1  1 1.000000
0  -0.000019 -0.000003 -0.407744  -0.000000 -0.000000 -1.000000  0.239314 0.250616  1  1 1.000000
no_material
0  0.449982 0.779420 -0.000422  0.434678 0.752889 -0.494179  0.114056 0.467569  1  1 1.000000
0  0.845705 0.307816 -0.000422  0.816931 0.297339 -0.494179  0.003906 0.336298  1  1 1.000000
0  -0.000019 -0.000003 -0.407744  -0.000000 -0.000000 -1.000000  0.239314 0.250616  1  1 1.000000
no_material
0  -0.156303 0.886324 -0.000422  -0.150965 0.856152 -0.494179  0.282816 0.497326  1  1 1.000000
0  0.449982 0.779420 -0.000422  0.434678 0.752889 -0.494179  0.114056 0.467569  1  1 1.000000
0  -0.000019 -0.000003 -0.407744  -0.000000 -0.000000 -1.000000  0.239314 0.250616  1  1 1.000000
no_material
0  -0.689459 0.578506 -0.000422  -0.665970 0.558812 -0.494179  0.431221 0.411645  1  1 1.000000
0  -0.156303 0.886324 -0.000422  -0.150965 0.856152 -0.494179  0.282816 0.497326  1  1 1.000000
0  -0.000019 -0.000003 -0.407744  -0.000000 -0.000000 -1.000000  0.239314 0.250616  1  1 1.000000
no_material
0  -0.900019 -0.000002 -0.000422  -0.869360 -0.000002 -0.494179  0.489830 0.250616  1  1 1.000000
0  -0.689459 0.578506 -0.000422  -0.665970 0.558812 -0.494179  0.431221 0.411645  1  1 1.000000
0  -0.000019 -0.000003 -0.407744  -0.000000 -0.000000 -1.000000  0.239314 0.250616  1  1 1.000000
no_material
0  -0.689459 -0.578511 -0.000422  -0.665968 -0.558815 -0.494179  0.431220 0.089588  1  1 1.000000
0  -0.900019 -0.000002 -0.000422  -0.869360 -0.000002 -0.494179  0.489830 0.250616  1  1 1.000000
0  -0.000019 -0.000003 -0.407744  -0.000000 -0.000000 -1.000000  0.239314 0.250616  1  1 1.000000
no_material
0  -0.156303 -0.886330 -0.000422  -0.150962 -0.856153 -0.494179  0.282816 0.003906  1  1 1.000000
0  -0.689459 -0.578511 -0.000422  -0.665968 -0.558815 -0.494179  0.431220 0.089588  1  1 1.000000
0  -0.000019 -0.000003 -0.407744  -0.000000 -0.000000 -1.000000  0.239314 0.250616  1  1 1.000000
no_material
0  0.449980 -0.779426 -0.000422  0.434682 -0.752887 -0.494179  0.114056 0.033663  1  1 1.000000
0  -0.156303 -0.886330 -0.000422  -0.150962 -0.856153 -0.494179  0.282816 0.003906  1  1 1.000000
0  -0.000019 -0.000003 -0.407744  -0.000000 -0.000000 -1.000000  0.239314 0.250616  1  1 1.000000
no_material
0  0.845703 -0.307821 -0.000422  0.816931 -0.297338 -0.494179  0.003906 0.164935  1  1 1.000000
0  0.449980 -0.779426 -0.000422  0.434682 -0.752887 -0.494179  0.114056 0.033663  1  1 1.000000
0  -0.000019 -0.000003 -0.407744  -0.000000 -0.000000 -1.000000  0.239314 0.250616  1  1 1.000000
no_material
0  -0.689459 0.578506 -0.000422  -0.665970 0.558812 -0.494179  0.885965 -49.183601  1  1 1.000000
0  -0.900019 -0.000002 -0.000422  -0.869360 -0.000002 -0.494179  0.997070 -49.183601  1  1 1.000000
0  -0.900019 -0.000002 9.997935  -0.990551 0.017685 0.136002  0.997070 -46.674198  1  1 1.000000
no_material
0  0.449980 -0.779426 -0.000422  0.434682 -0.752887 -0.494179  0.330390 -49.183601  1  1 1.000000
0  0.845703 -0.307821 -0.000422  0.816931 -0.297338 -0.494179  0.441505 -49.183601  1  1 1.000000
0  0.845703 -0.307821 9.997935  0.931045 -0.338764 0.135629  0.441505 -46.674198  1  1 1.000000
no_material
0  0.845703 -0.307821 -0.000422  0.816931 -0.297338 -0.494179  0.441505 -49.183601  1  1 1.000000
0  0.845705 0.307816 -0.000422  0.816931 0.297339 -0.494179  0.552620 -49.183601  1  1 1.000000
0  0.845705 0.307816 9.997935  0.936862 0.322168 0.136002  0.552620 -46.674198  1  1 1.000000
no_material
0  -0.900019 -0.000002 -0.000422  -0.869360 -0.000002 -0.494179  -0.002930 -49.183601  1  1 1.000000
0  -0.689459 -0.578511 -0.000422  -0.665968 -0.558815 -0.494179  0.108185 -49.183601  1  1 1.000000
0  -0.689459 -0.578511 9.997935  -0.747441 -0.650258 0.136002  0.108185 -46.674198  1  1 1.000000
no_material
0  -0.156303 0.886324 -0.000422  -0.150965 0.856152 -0.494179  0.774850 -49.183601  1  1 1.000000
0  -0.689459 0.578506 -0.000422  -0.665970 0.558812 -0.494179  0.885965 -49.183601  1  1 1.000000
0  -0.689459 0.578507 9.997935  -0.758965 0.636850 0.135629  0.885965 -46.674198  1  1 1.000000
no_material
0  0.449982 0.779420 -0.000422  0.434678 0.752889 -0.494179  0.663735 -49.183601  1  1 1.000000
0  -0.156303 0.886324 -0.000422  -0.150965 0.856152 -0.494179  0.774850 -49.183601  1  1 1.000000
0  -0.156303 0.886325 9.997935  -0.172042 0.975708 0.135628  0.774850 -46.674198  1  1 1.000000
no_material
0  -0.156303 -0.886330 -0.000422  -0.150962 -0.856153 -0.494179  0.219275 -49.183601  1  1 1.000000
0  0.449980 -0.779426 -0.000422  0.434682 -0.752887 -0.494179  0.330390 -49.183601  1  1 1.000000
0  0.449980 -0.779425 9.997935  0.510588 -0.849002 0.136002  0.330390 -46.674198  1  1 1.000000
no_material
0  -0.689459 -0.578511 -0.000422  -0.665968 -0.558815 -0.494179  0.108185 -49.183601  1  1 1.000000
0  -0.156303 -0.886330 -0.000422  -0.150962 -0.856153 -0.494179  0.219275 -49.183601  1  1 1.000000
0  -0.156303 -0.886329 9.997935  -0.171942 -0.975726 0.135629  0.219275 -46.674198  1  1 1.000000
no_material
0  0.845705 0.307816 -0.000422  0.816931 0.297339 -0.494179  0.552620 -49.183601  1  1 1.000000
0  0.449982 0.779420 -0.000422  0.434678 0.752889 -0.494179  0.663735 -49.183601  1  1 1.000000
0  0.449982 0.779421 9.997935  0.495351 0.858040 0.135629  0.663735 -46.674198  1  1 1.000000
end
